<svg width="2291" height="2291" viewBox="0 0 2291 2291" fill="none"
    xmlns="http://www.w3.org/2000/svg">
    <rect width="2291" height="2291" fill="#8EB63B"/>
    <g clip-path="url(#clip0_5_18)">
        <path d="M1633.49 419.316H1259.82C1242.03 413.988 1221.57 409.548 1198.44 405.996C1174.41 402.444 1150.39 400.668 1125.48 400.668C1064.98 400.668 1009.82 409.548 960.89 426.42C911.068 444.18 868.363 468.155 833.665 500.123C798.077 531.202 771.387 569.386 751.814 613.786C732.241 658.185 722.454 707.024 722.454 760.304C722.454 786.055 724.233 809.143 727.792 829.567C731.351 849.991 736.689 868.638 743.806 886.398C750.924 904.158 759.821 920.142 769.607 935.238C779.394 950.333 790.96 965.429 804.305 981.413C775.835 1014.27 750.924 1048.9 729.571 1086.2C708.219 1123.49 698.432 1163.45 698.432 1207.85C698.432 1223.83 700.212 1239.82 704.66 1255.8C709.109 1271.79 715.336 1287.77 723.344 1302.87C731.351 1317.96 742.027 1331.28 755.372 1343.71C768.718 1356.14 783.842 1365.91 801.636 1374.79C752.703 1409.42 717.116 1445.83 693.984 1483.13C669.073 1519.53 657.507 1563.05 657.507 1612.77C657.507 1651.84 666.404 1687.36 683.308 1720.22C700.212 1753.08 727.792 1780.6 765.159 1804.58C802.526 1828.55 850.569 1846.31 909.288 1859.63C968.008 1872.95 1039.18 1880.06 1122.81 1880.06C1210.89 1880.06 1286.52 1871.18 1349.68 1852.53C1412.85 1833.88 1466.23 1809.02 1507.16 1777.94C1548.97 1746.86 1579.22 1710.45 1598.8 1669.6C1618.37 1628.76 1629.04 1585.25 1629.04 1539.07C1629.04 1496.45 1620.15 1459.15 1603.24 1427.18C1586.34 1395.22 1561.43 1367.69 1530.29 1346.38C1499.15 1324.18 1461.78 1307.31 1418.19 1295.76C1374.59 1284.22 1327.44 1278 1275.84 1276.23L1004.48 1266.46C963.559 1264.68 930.641 1255.8 905.729 1238.93C880.818 1222.06 868.363 1199.86 868.363 1174.11C868.363 1152.79 872.811 1134.15 881.708 1116.39C890.605 1099.52 901.281 1080.87 914.626 1062.22C936.869 1075.54 966.228 1087.08 1003.6 1096.85C1029.4 1103.07 1057.87 1107.51 1086.34 1109.28C1085.45 1026.7 1084.56 1057.78 1083.67 917.478C1072.99 919.254 989.36 932.574 923.523 857.095C863.025 787.831 863.025 697.257 863.914 683.049C879.039 679.497 954.662 661.737 1027.62 719.456C1091.67 770.072 1112.14 844.663 1117.48 865.086C1118.36 846.439 1127.26 729.224 1210.89 650.193C1279.4 585.37 1354.13 588.034 1374.59 589.81C1377.26 612.898 1378.15 651.081 1368.37 695.481C1352.35 763.856 1316.76 804.703 1298.08 825.127C1242.92 886.398 1180.64 904.158 1151.28 910.374C1150.39 1054.23 1149.5 1023.15 1148.61 1111.06C1199.33 1109.28 1246.48 1100.4 1290.07 1085.31C1339.9 1067.55 1382.6 1043.57 1418.19 1011.6C1453.78 980.525 1481.36 942.342 1500.93 897.942C1520.5 853.543 1530.29 804.703 1530.29 751.424C1530.29 714.128 1524.95 680.385 1514.28 648.417C1503.6 616.449 1488.47 588.922 1469.79 564.946H1635.27V419.316H1633.49ZM870.142 1508.88C878.149 1493.78 889.715 1479.58 904.84 1465.37C919.964 1451.16 938.648 1436.06 960.89 1420.97L1230.47 1429.85C1300.75 1433.4 1353.24 1444.94 1387.94 1464.48C1422.64 1484.02 1439.54 1515.09 1439.54 1556.83C1439.54 1579.03 1434.2 1601.23 1424.42 1623.43C1414.63 1645.63 1396.84 1664.28 1373.7 1681.15C1349.68 1698.02 1318.54 1711.34 1280.29 1722C1241.14 1732.65 1193.99 1737.09 1137.05 1737.09C1046.3 1737.09 976.015 1725.55 925.303 1703.35C874.59 1681.15 849.679 1645.63 849.679 1596.79C849.679 1581.69 851.459 1566.6 855.017 1552.39C855.907 1538.18 862.135 1523.97 870.142 1508.88Z" fill="white"/>
    </g>
    <defs>
        <clipPath id="clip0_5_18">
            <rect width="975.987" height="1479.39" fill="white" transform="translate(657.507 400.668)"/>
        </clipPath>
    </defs>
</svg>
