<svg xmlns="http://www.w3.org/2000/svg"
    xmlns:xlink="http://www.w3.org/1999/xlink" width="110" height="183.239" viewBox="0 0 110 183.239">
    <defs>
        <clipPath id="clip-path">
            <path id="Path_64" data-name="Path 64" d="M103,141.127H70l7,74h41l7-74Z" fill="none"/>
        </clipPath>
    </defs>
    <g id="Group_187" data-name="Group 187" transform="translate(-41.5 -36.049)">
        <path id="Path_1" data-name="Path 1" d="M151.5,213.644c0,3.117-24.625,5.644-55,5.644s-55-2.527-55-5.644S66.124,208,96.5,208,151.5,210.527,151.5,213.644Z" fill="#d6d6d6" opacity="0.5"/>
        <g id="Group_49" data-name="Group 49">
            <g id="Group_15" data-name="Group 15">
                <g id="Group_2" data-name="Group 2">
                    <path id="Path_7" data-name="Path 7" d="M99.426,63.426a25.193,25.193,0,0,1-3.52-14.115,21.925,21.925,0,0,1,3.276-9.663,20.144,20.144,0,0,1,2-2.673c.526-.607.852-.926.852-.926s.116.43.262,1.174c.169.752.278,1.79.494,3.072a43.182,43.182,0,0,1,.432,9.635,36.616,36.616,0,0,1-2.092,9.488A31.253,31.253,0,0,1,99.426,63.426Z" fill="#4e7d6d"/>
                </g>
                <path id="Path_8" data-name="Path 8" d="M99.787,48.7c-2.567,44.927.472,88.17,2.426,132.854" fill="none" stroke="#2a4a28" stroke-miterlimit="10" stroke-width="0.25"/>
                <g id="Group_5" data-name="Group 5">
                    <g id="Group_3" data-name="Group 3">
                        <path id="Path_9" data-name="Path 9" d="M99.013,80.408a25.2,25.2,0,0,1-11.1-9.4,21.915,21.915,0,0,1-2.987-9.756,20.069,20.069,0,0,1,.06-3.336c.072-.8.151-1.249.151-1.249s.345.28.9.8c.576.512,1.271,1.291,2.195,2.205a43.289,43.289,0,0,1,5.98,7.567,36.712,36.712,0,0,1,3.845,8.924A31.241,31.241,0,0,1,99.013,80.408Z" fill="#4e7d6d"/>
                    </g>
                    <g id="Group_4" data-name="Group 4">
                        <path id="Path_10" data-name="Path 10" d="M99.374,80.408a25.193,25.193,0,0,0,11.1-9.4,21.925,21.925,0,0,0,2.986-9.756,20.087,20.087,0,0,0-.059-3.336c-.073-.8-.151-1.249-.151-1.249s-.345.28-.9.8c-.575.512-1.27,1.291-2.194,2.205a43.2,43.2,0,0,0-5.98,7.567,36.68,36.68,0,0,0-3.846,8.924A31.622,31.622,0,0,0,99.374,80.408Z" fill="#4e7d6d"/>
                    </g>
                    <path id="Path_11" data-name="Path 11" d="M87.5,64.127c3.75,4.75,6.5,10.5,10.5,15.25" fill="none" stroke="#2a4a28" stroke-miterlimit="10" stroke-width="0.25"/>
                    <path id="Path_12" data-name="Path 12" d="M98.75,80.127c4.25-3.25,7.75-8.25,10.75-12.75" fill="none" stroke="#2a4a28" stroke-miterlimit="10" stroke-width="0.25"/>
                </g>
                <g id="Group_8" data-name="Group 8">
                    <g id="Group_6" data-name="Group 6">
                        <path id="Path_13" data-name="Path 13" d="M99,98.2A27.416,27.416,0,0,1,86.919,87.976a23.87,23.87,0,0,1-3.248-10.614,21.867,21.867,0,0,1,.064-3.629c.08-.87.165-1.359.165-1.359s.375.305.977.87c.626.557,1.382,1.4,2.388,2.4a47.047,47.047,0,0,1,6.5,8.232,39.925,39.925,0,0,1,4.183,9.707A34.312,34.312,0,0,1,99,98.2Z" fill="#4e7d6d"/>
                    </g>
                    <g id="Group_7" data-name="Group 7">
                        <path id="Path_14" data-name="Path 14" d="M99.39,98.2a27.409,27.409,0,0,0,12.078-10.224,23.873,23.873,0,0,0,3.249-10.614,21.849,21.849,0,0,0-.065-3.629c-.079-.87-.164-1.359-.164-1.359s-.375.305-.978.87c-.626.557-1.382,1.4-2.387,2.4a47.047,47.047,0,0,0-6.505,8.232,39.886,39.886,0,0,0-4.183,9.707A34.312,34.312,0,0,0,99.39,98.2Z" fill="#4e7d6d"/>
                    </g>
                    <path id="Path_15" data-name="Path 15" d="M86.473,80.49c4.079,5.167,7.071,11.422,11.422,16.589" fill="none" stroke="#2a4a28" stroke-miterlimit="10" stroke-width="0.25"/>
                    <path id="Path_16" data-name="Path 16" d="M98.711,97.895c4.623-3.536,8.431-8.975,11.694-13.87" fill="none" stroke="#2a4a28" stroke-miterlimit="10" stroke-width="0.25"/>
                </g>
                <g id="Group_11" data-name="Group 11">
                    <g id="Group_9" data-name="Group 9">
                        <path id="Path_17" data-name="Path 17" d="M99.677,116.729a30.591,30.591,0,0,1-14-10.781,26.618,26.618,0,0,1-4.171-11.669,24.334,24.334,0,0,1-.114-4.051c.041-.974.112-1.524.112-1.524s.434.321,1.135.92c.727.588,1.614,1.494,2.787,2.552a52.434,52.434,0,0,1,7.678,8.844,44.55,44.55,0,0,1,5.167,10.611A38.155,38.155,0,0,1,99.677,116.729Z" fill="#4e7d6d"/>
                    </g>
                    <g id="Group_10" data-name="Group 10">
                        <path id="Path_18" data-name="Path 18" d="M100.115,116.708a30.6,30.6,0,0,0,12.943-12.026,26.633,26.633,0,0,0,3.076-12,24.443,24.443,0,0,0-.26-4.044c-.132-.967-.253-1.507-.253-1.507s-.4.359-1.045,1.02c-.67.653-1.469,1.637-2.539,2.8a52.41,52.41,0,0,0-6.83,9.516,44.577,44.577,0,0,0-4.166,11.042A38.017,38.017,0,0,0,100.115,116.708Z" fill="#4e7d6d"/>
                    </g>
                    <path id="Path_19" data-name="Path 19" d="M84.795,97.622c4.817,5.553,8.475,12.375,13.6,17.913" fill="none" stroke="#2a4a28" stroke-miterlimit="10" stroke-width="0.25"/>
                    <path id="Path_20" data-name="Path 20" d="M99.342,116.4c4.974-4.181,8.94-10.445,12.327-16.072" fill="none" stroke="#2a4a28" stroke-miterlimit="10" stroke-width="0.25"/>
                </g>
                <g id="Group_14" data-name="Group 14">
                    <g id="Group_12" data-name="Group 12">
                        <path id="Path_21" data-name="Path 21" d="M99.971,134.692a32.073,32.073,0,0,1-14.672-11.3,27.9,27.9,0,0,1-4.371-12.232,25.6,25.6,0,0,1-.121-4.246c.045-1.021.119-1.6.119-1.6s.454.337,1.189.964c.762.618,1.692,1.567,2.921,2.676a54.95,54.95,0,0,1,8.049,9.271A46.706,46.706,0,0,1,98.5,129.349,39.819,39.819,0,0,1,99.971,134.692Z" fill="#4e7d6d"/>
                    </g>
                    <g id="Group_13" data-name="Group 13">
                        <path id="Path_22" data-name="Path 22" d="M100.431,134.671A32.077,32.077,0,0,0,114,122.065a27.919,27.919,0,0,0,3.224-12.584,25.68,25.68,0,0,0-.272-4.238c-.139-1.013-.265-1.58-.265-1.58s-.423.377-1.1,1.069c-.7.685-1.54,1.716-2.662,2.934a54.991,54.991,0,0,0-7.159,9.974,46.719,46.719,0,0,0-4.366,11.574A39.906,39.906,0,0,0,100.431,134.671Z" fill="#4e7d6d"/>
                    </g>
                    <path id="Path_23" data-name="Path 23" d="M84.373,114.665c5.048,5.82,8.883,12.971,14.249,18.775" fill="none" stroke="#2a4a28" stroke-miterlimit="10" stroke-width="0.25"/>
                    <path id="Path_24" data-name="Path 24" d="M99.62,134.351c5.214-4.383,9.371-10.948,12.921-16.847" fill="none" stroke="#2a4a28" stroke-miterlimit="10" stroke-width="0.25"/>
                </g>
            </g>
            <g id="Group_29" data-name="Group 29">
                <g id="Group_16" data-name="Group 16">
                    <path id="Path_25" data-name="Path 25" d="M64.383,73.038a25.2,25.2,0,0,1-7.5-12.468,21.917,21.917,0,0,1,.306-10.2,20.069,20.069,0,0,1,1.127-3.14c.325-.734.544-1.134.544-1.134s.237.376.594,1.046c.381.669.789,1.63,1.371,2.793a43.155,43.155,0,0,1,3.232,9.086,36.632,36.632,0,0,1,.775,9.686A31.294,31.294,0,0,1,64.383,73.038Z" fill="#62966f"/>
                </g>
                <path id="Path_26" data-name="Path 26" d="M60.42,58.85c10.689,43.712,26.245,84.175,41.186,126.333" fill="none" stroke="#2a4a28" stroke-miterlimit="10" stroke-width="0.25"/>
                <g id="Group_19" data-name="Group 19">
                    <g id="Group_17" data-name="Group 17">
                        <path id="Path_27" data-name="Path 27" d="M68.956,89.4A25.226,25.226,0,0,1,55.59,83.657,21.91,21.91,0,0,1,49.88,75.2a20.076,20.076,0,0,1-.919-3.207c-.165-.786-.221-1.239-.221-1.239s.411.167,1.093.5c.7.321,1.592.862,2.743,1.466a43.2,43.2,0,0,1,7.932,5.487A36.668,36.668,0,0,1,66.8,85.618,31.052,31.052,0,0,1,68.956,89.4Z" fill="#62966f"/>
                    </g>
                    <g id="Group_18" data-name="Group 18">
                        <path id="Path_28" data-name="Path 28" d="M69.3,89.292a25.2,25.2,0,0,0,7.867-12.237,21.937,21.937,0,0,0,0-10.2,20.014,20.014,0,0,0-1.033-3.172c-.3-.744-.509-1.151-.509-1.151S75.38,62.9,75,63.557c-.4.657-.837,1.605-1.454,2.75a43.332,43.332,0,0,0-3.5,8.985,36.711,36.711,0,0,0-1.067,9.658A31.17,31.17,0,0,0,69.3,89.292Z" fill="#62966f"/>
                    </g>
                    <path id="Path_29" data-name="Path 29" d="M53.184,77.2c4.975,3.445,9.287,8.139,14.5,11.511" fill="none" stroke="#2a4a28" stroke-miterlimit="10" stroke-width="0.25"/>
                    <path id="Path_30" data-name="Path 30" d="M68.623,89.206c3.113-4.351,5-10.157,6.549-15.337" fill="none" stroke="#2a4a28" stroke-miterlimit="10" stroke-width="0.25"/>
                </g>
                <g id="Group_22" data-name="Group 22">
                    <g id="Group_20" data-name="Group 20">
                        <path id="Path_31" data-name="Path 31" d="M74.146,106.416A27.414,27.414,0,0,1,59.6,100.172a23.865,23.865,0,0,1-6.211-9.2,21.8,21.8,0,0,1-1-3.49c-.179-.855-.24-1.347-.24-1.347s.448.181,1.189.545c.762.35,1.732.938,2.985,1.6a47.012,47.012,0,0,1,8.628,5.969A39.944,39.944,0,0,1,71.8,102.3,34.016,34.016,0,0,1,74.146,106.416Z" fill="#62966f"/>
                    </g>
                    <g id="Group_21" data-name="Group 21">
                        <path id="Path_32" data-name="Path 32" d="M74.522,106.3A27.414,27.414,0,0,0,83.081,92.99a23.862,23.862,0,0,0,0-11.1,21.873,21.873,0,0,0-1.124-3.451c-.33-.81-.554-1.251-.554-1.251s-.27.4-.681,1.117c-.435.715-.91,1.746-1.581,2.991a47.061,47.061,0,0,0-3.812,9.775,39.94,39.94,0,0,0-1.161,10.507A34.153,34.153,0,0,0,74.522,106.3Z" fill="#62966f"/>
                    </g>
                    <path id="Path_33" data-name="Path 33" d="M56.988,93.145c5.413,3.747,10.1,8.853,15.776,12.522" fill="none" stroke="#2a4a28" stroke-miterlimit="10" stroke-width="0.25"/>
                    <path id="Path_34" data-name="Path 34" d="M73.783,106.208c3.387-4.733,5.436-11.048,7.125-16.685" fill="none" stroke="#2a4a28" stroke-miterlimit="10" stroke-width="0.25"/>
                </g>
                <g id="Group_25" data-name="Group 25">
                    <g id="Group_23" data-name="Group 23">
                        <path id="Path_35" data-name="Path 35" d="M80.216,123.935a30.595,30.595,0,0,1-16.538-6.214,26.614,26.614,0,0,1-7.4-9.939,24.325,24.325,0,0,1-1.3-3.84c-.245-.944-.338-1.49-.338-1.49s.509.18,1.355.547c.867.351,1.98.958,3.411,1.625a52.468,52.468,0,0,1,9.93,6.211,44.546,44.546,0,0,1,8.044,8.636A37.933,37.933,0,0,1,80.216,123.935Z" fill="#62966f"/>
                    </g>
                    <g id="Group_24" data-name="Group 24">
                        <path id="Path_36" data-name="Path 36" d="M80.629,123.788A30.593,30.593,0,0,0,89.487,108.5a26.625,26.625,0,0,0-.57-12.379,24.334,24.334,0,0,0-1.431-3.791c-.409-.886-.683-1.367-.683-1.367s-.28.461-.7,1.281c-.449.821-.926,1.995-1.609,3.419a52.413,52.413,0,0,0-3.747,11.1,44.543,44.543,0,0,0-.753,11.778A38.083,38.083,0,0,0,80.629,123.788Z" fill="#62966f"/>
                    </g>
                    <path id="Path_37" data-name="Path 37" d="M60.4,110.018c6.231,3.9,11.725,9.354,18.24,13.152" fill="none" stroke="#2a4a28" stroke-miterlimit="10" stroke-width="0.25"/>
                    <path id="Path_38" data-name="Path 38" d="M79.8,123.722c3.533-5.454,5.493-12.6,7.086-18.975" fill="none" stroke="#2a4a28" stroke-miterlimit="10" stroke-width="0.25"/>
                </g>
                <g id="Group_28" data-name="Group 28">
                    <g id="Group_26" data-name="Group 26">
                        <path id="Path_39" data-name="Path 39" d="M85.753,141.027a32.08,32.08,0,0,1-17.336-6.514A27.9,27.9,0,0,1,60.658,124.1,25.7,25.7,0,0,1,59.3,120.07c-.257-.989-.354-1.562-.354-1.562s.533.188,1.419.574c.91.367,2.076,1,3.576,1.7A54.972,54.972,0,0,1,74.351,127.3a46.691,46.691,0,0,1,8.433,9.051A39.812,39.812,0,0,1,85.753,141.027Z" fill="#62966f"/>
                    </g>
                    <g id="Group_27" data-name="Group 27">
                        <path id="Path_40" data-name="Path 40" d="M86.186,140.872a32.065,32.065,0,0,0,9.286-16.024,27.926,27.926,0,0,0-.6-12.976,25.779,25.779,0,0,0-1.5-3.974c-.43-.928-.716-1.433-.716-1.433s-.294.485-.735,1.344c-.471.86-.97,2.091-1.687,3.583a54.942,54.942,0,0,0-3.928,11.633,46.726,46.726,0,0,0-.789,12.345A40.063,40.063,0,0,0,86.186,140.872Z" fill="#62966f"/>
                    </g>
                    <path id="Path_41" data-name="Path 41" d="M64.978,126.439c6.53,4.088,12.289,9.805,19.119,13.785" fill="none" stroke="#2a4a28" stroke-miterlimit="10" stroke-width="0.25"/>
                    <path id="Path_42" data-name="Path 42" d="M85.317,140.8c3.7-5.717,5.759-13.211,7.428-19.89" fill="none" stroke="#2a4a28" stroke-miterlimit="10" stroke-width="0.25"/>
                </g>
            </g>
            <g id="Group_43" data-name="Group 43">
                <g id="Group_30" data-name="Group 30">
                    <path id="Path_43" data-name="Path 43" d="M132.212,75.788a25.175,25.175,0,0,0,7.495-12.468,21.919,21.919,0,0,0-.305-10.2,19.953,19.953,0,0,0-1.128-3.14c-.325-.734-.544-1.134-.544-1.134s-.236.376-.594,1.046c-.381.668-.788,1.63-1.37,2.792a43.13,43.13,0,0,0-3.232,9.087,36.637,36.637,0,0,0-.776,9.686A31.483,31.483,0,0,0,132.212,75.788Z" fill="#62966f"/>
                </g>
                <path id="Path_44" data-name="Path 44" d="M136.176,61.6c-10.689,43.712-26.245,84.175-41.187,126.333" fill="none" stroke="#2a4a28" stroke-miterlimit="10" stroke-width="0.25"/>
                <g id="Group_33" data-name="Group 33">
                    <g id="Group_31" data-name="Group 31">
                        <path id="Path_45" data-name="Path 45" d="M127.64,92.148a25.226,25.226,0,0,0,13.366-5.741,21.921,21.921,0,0,0,5.71-8.456,20.077,20.077,0,0,0,.919-3.207c.165-.786.221-1.239.221-1.239s-.412.167-1.093.5c-.7.321-1.593.862-2.744,1.466a43.265,43.265,0,0,0-7.932,5.487,36.692,36.692,0,0,0-6.287,7.408A31.051,31.051,0,0,0,127.64,92.148Z" fill="#62966f"/>
                    </g>
                    <g id="Group_32" data-name="Group 32">
                        <path id="Path_46" data-name="Path 46" d="M127.294,92.042a25.2,25.2,0,0,1-7.867-12.237,21.926,21.926,0,0,1,0-10.2,20.118,20.118,0,0,1,1.033-3.172c.3-.744.51-1.151.51-1.151s.248.369.625,1.028c.4.657.838,1.605,1.454,2.75a43.219,43.219,0,0,1,3.5,8.985,36.668,36.668,0,0,1,1.067,9.658A31.475,31.475,0,0,1,127.294,92.042Z" fill="#62966f"/>
                    </g>
                    <path id="Path_47" data-name="Path 47" d="M143.412,79.947c-4.976,3.445-9.288,8.139-14.5,11.511" fill="none" stroke="#2a4a28" stroke-miterlimit="10" stroke-width="0.25"/>
                    <path id="Path_48" data-name="Path 48" d="M127.973,91.956c-3.113-4.351-5-10.157-6.549-15.337" fill="none" stroke="#2a4a28" stroke-miterlimit="10" stroke-width="0.25"/>
                </g>
                <g id="Group_36" data-name="Group 36">
                    <g id="Group_34" data-name="Group 34">
                        <path id="Path_49" data-name="Path 49" d="M122.449,109.166a27.414,27.414,0,0,0,14.541-6.244,23.868,23.868,0,0,0,6.212-9.2,22.016,22.016,0,0,0,1-3.49c.178-.855.24-1.347.24-1.347s-.448.181-1.19.545c-.761.35-1.732.938-2.984,1.6A47.012,47.012,0,0,0,131.64,97a39.952,39.952,0,0,0-6.841,8.058A34.36,34.36,0,0,0,122.449,109.166Z" fill="#62966f"/>
                    </g>
                    <g id="Group_35" data-name="Group 35">
                        <path id="Path_50" data-name="Path 50" d="M122.074,109.051a27.414,27.414,0,0,1-8.559-13.311,23.862,23.862,0,0,1,0-11.1,21.783,21.783,0,0,1,1.123-3.451c.33-.81.555-1.251.555-1.251s.269.4.681,1.117c.435.715.91,1.746,1.581,2.991a47.061,47.061,0,0,1,3.812,9.775,39.934,39.934,0,0,1,1.16,10.507A34.074,34.074,0,0,1,122.074,109.051Z" fill="#62966f"/>
                    </g>
                    <path id="Path_51" data-name="Path 51" d="M139.607,95.895c-5.412,3.747-10.1,8.853-15.776,12.522" fill="none" stroke="#2a4a28" stroke-miterlimit="10" stroke-width="0.25"/>
                    <path id="Path_52" data-name="Path 52" d="M122.812,108.958c-3.386-4.733-5.436-11.048-7.125-16.685" fill="none" stroke="#2a4a28" stroke-miterlimit="10" stroke-width="0.25"/>
                </g>
                <g id="Group_39" data-name="Group 39">
                    <g id="Group_37" data-name="Group 37">
                        <path id="Path_53" data-name="Path 53" d="M116.379,126.685a30.594,30.594,0,0,0,16.539-6.214,26.625,26.625,0,0,0,7.4-9.939,24.3,24.3,0,0,0,1.294-3.84c.245-.944.339-1.49.339-1.49s-.509.18-1.355.547c-.867.351-1.98.958-3.411,1.625a52.468,52.468,0,0,0-9.93,6.211,44.555,44.555,0,0,0-8.045,8.636A37.933,37.933,0,0,0,116.379,126.685Z" fill="#62966f"/>
                    </g>
                    <g id="Group_38" data-name="Group 38">
                        <path id="Path_54" data-name="Path 54" d="M115.966,126.538a30.614,30.614,0,0,1-8.858-15.287,26.638,26.638,0,0,1,.57-12.379,24.436,24.436,0,0,1,1.431-3.791c.41-.886.683-1.367.683-1.367s.28.461.7,1.281c.449.821.925,1.995,1.609,3.419a52.469,52.469,0,0,1,3.747,11.1,44.542,44.542,0,0,1,.753,11.778A37.972,37.972,0,0,1,115.966,126.538Z" fill="#62966f"/>
                    </g>
                    <path id="Path_55" data-name="Path 55" d="M136.2,112.768c-6.23,3.9-11.724,9.354-18.24,13.152" fill="none" stroke="#2a4a28" stroke-miterlimit="10" stroke-width="0.25"/>
                    <path id="Path_56" data-name="Path 56" d="M116.795,126.472c-3.533-5.454-5.493-12.6-7.086-18.975" fill="none" stroke="#2a4a28" stroke-miterlimit="10" stroke-width="0.25"/>
                </g>
                <g id="Group_42" data-name="Group 42">
                    <g id="Group_40" data-name="Group 40">
                        <path id="Path_57" data-name="Path 57" d="M110.843,143.777a32.087,32.087,0,0,0,17.336-6.514,27.907,27.907,0,0,0,7.758-10.418,25.619,25.619,0,0,0,1.358-4.025c.256-.989.353-1.562.353-1.562s-.532.188-1.419.574c-.909.367-2.075,1-3.576,1.7a55,55,0,0,0-10.408,6.511,46.691,46.691,0,0,0-8.433,9.051A39.813,39.813,0,0,0,110.843,143.777Z" fill="#62966f"/>
                    </g>
                    <g id="Group_41" data-name="Group 41">
                        <path id="Path_58" data-name="Path 58" d="M110.409,143.622a32.078,32.078,0,0,1-9.285-16.024,27.9,27.9,0,0,1,.6-12.976,25.675,25.675,0,0,1,1.5-3.974c.429-.928.716-1.433.716-1.433s.293.485.735,1.344c.471.86.97,2.091,1.687,3.583a55.056,55.056,0,0,1,3.928,11.633,46.726,46.726,0,0,1,.789,12.345A39.756,39.756,0,0,1,110.409,143.622Z" fill="#62966f"/>
                    </g>
                    <path id="Path_59" data-name="Path 59" d="M131.618,129.189c-6.53,4.088-12.289,9.805-19.119,13.785" fill="none" stroke="#2a4a28" stroke-miterlimit="10" stroke-width="0.25"/>
                    <path id="Path_60" data-name="Path 60" d="M111.278,143.553c-3.7-5.717-5.758-13.211-7.427-19.89" fill="none" stroke="#2a4a28" stroke-miterlimit="10" stroke-width="0.25"/>
                </g>
            </g>
            <g id="Group_48" data-name="Group 48">
                <g id="Group_47" data-name="Group 47" clip-path="url(#clip-path)">
                    <path id="Path_61" data-name="Path 61" d="M103,141.127H70l7,74h41l7-74Z" fill="#f6b15f"/>
                    <g id="Group_46" data-name="Group 46">
                        <g id="Group_44" data-name="Group 44">
                            <path id="Path_62" data-name="Path 62" d="M65.167,148.522c4.792.863,8.15,18.714,14.838,9.37,1.436-2.006,2.623-4.168,3.928-6.258,2.619-4.2,4.112-2.634,6.313.9,1.492,2.4,3.709,8.028,7.256,8.028,3.273,0,5.4-4.813,6.753-7.092,1.074-1.807,2.948-6.273,5.363-3.9,2.074,2.035,3.323,5.123,4.893,7.541,1.669,2.569,3.91,4.537,6.788,2.48,3.178-2.272,4.77-10.348,8.533-11.071,1.583-.3.911-2.714-.665-2.411-3.272.629-5.128,5.5-6.641,7.984-1.721,2.828-3.422,5.2-5.856,1.756-1.432-2.027-2.555-4.268-3.938-6.331-6.5-9.7-10.308,5-14.718,8.346-3.236,2.454-7.891-19.039-15.107-9.125-1.454,2-2.646,4.16-3.945,6.258-2.122,3.429-3.549,3.307-5.763,0-1.814-2.708-3.671-8.222-7.366-8.888-1.577-.284-2.25,2.125-.666,2.411Z" fill="#b57e6a"/>
                        </g>
                        <g id="Group_45" data-name="Group 45">
                            <path id="Path_63" data-name="Path 63" d="M65.167,162.643c4.792.863,8.15,18.714,14.838,9.37,1.436-2.006,2.623-4.168,3.928-6.258,2.619-4.2,4.112-2.634,6.313.9,1.492,2.4,3.709,8.029,7.256,8.029,3.273,0,5.4-4.814,6.753-7.093,1.074-1.806,2.948-6.273,5.363-3.9,2.074,2.036,3.323,5.123,4.893,7.541,1.669,2.569,3.91,4.537,6.788,2.48,3.178-2.272,4.77-10.348,8.533-11.071,1.583-.3.911-2.714-.665-2.411-3.272.629-5.128,5.5-6.641,7.984-1.721,2.828-3.422,5.2-5.856,1.756-1.432-2.027-2.555-4.268-3.938-6.331-6.5-9.7-10.308,5-14.718,8.346-3.236,2.454-7.891-19.039-15.107-9.125-1.454,2-2.646,4.16-3.945,6.258-2.122,3.429-3.549,3.307-5.763,0-1.814-2.708-3.671-8.222-7.366-8.888-1.577-.284-2.25,2.125-.666,2.411Z" fill="#b57e6a"/>
                        </g>
                    </g>
                </g>
            </g>
            <path id="Path_65" data-name="Path 65" d="M115.848,141.127a97.591,97.591,0,0,1,1.149,15c0,30.56-13.73,55.334-30.667,55.334a18.783,18.783,0,0,1-9.961-3L77,215.127h41l7-74Z" fill="#f6b15f" opacity="0.5" style="mix-blend-mode: multiply;isolation: isolate"/>
        </g>
    </g>
</svg>
